<svg xmlns="http://www.w3.org/2000/svg" width="35.189" height="27.575" viewBox="0 0 35.189 27.575">
  <path id="Dessin_10" data-name="Dessin 10" d="M1211.533,1426.17c-1.488,2.312-.407,2.412-1.684.3a27.089,27.089,0,0,0-3.08-3.91c-2.9-2.31-5.629.117-4.933,3.3.425,1.961,2.666,4.348,5.107,7.832,1.246,1.786,1.319,1.593,1.62,2.1.451.748,1.438,2.569,2.079,2.346.545.434.93-.462,1.227-1.112a5.961,5.961,0,0,0,.93-1.246c2.26-4.253,8.724-7.7,7.43-12.147C1219.583,1421.438,1215.436,1420.124,1211.533,1426.17Zm4.531-2.209c.058.094.079.053-.162.2-.8.479-.707.537-.709.406,0-.09-.039-.044.1-.151C1215.181,1424.491,1215.913,1423.92,1216.064,1423.962Zm.109.535a3.626,3.626,0,0,1-.129.838c-.516.31-.389.3-.5.2-.2-.169-.363.061-.537.292-.061-.283-.062-.161-.044-.3C1215.082,1425.2,1215.7,1424.817,1216.173,1424.5Zm.706-1.04c.034.112.074.075-.243.267-.283.172-.078-.059-.444-.182C1216.536,1423.338,1216.749,1423.186,1216.879,1423.457Zm.427,1.224c-.253.116-.208.171-.121-.2C1217.4,1424.215,1217.424,1424.1,1217.306,1424.681Zm-.12,3.99c.114.012.181-.035-.094.2Q1217.14,1428.772,1217.186,1428.672Zm.6-4.834a4.17,4.17,0,0,1,.607-.476,2.224,2.224,0,0,1-.084.826c-.406.193-.577.448-.555.31A2.176,2.176,0,0,0,1217.784,1423.838Zm1.13.638c.144.079.034.082-.3.348C1218.732,1424.463,1218.682,1424.392,1218.914,1424.476Zm.152.849a2.744,2.744,0,0,1-.286.967c-.035-.272-.178-.523-.453-.526.084-.264.061-.218.11-.259C1219.191,1424.874,1219.121,1424.891,1219.066,1425.324Zm-.877-.6c-.007.021,0,.019-.013.009Zm-.334.255c.072.073.069.314.072.417-.651.552-.537.535-.429.182C1217.63,1425.143,1217.539,1425.246,1217.855,1424.979Zm0,2.34c.391-.945.287-1.074.435-1.107a2.434,2.434,0,0,1-.681,2.012C1217.27,1428.341,1217.431,1428.342,1217.858,1427.32Zm-6.736,8.745c-.026.031-.013.053-.03-.153C1211.149,1435.894,1211.118,1435.835,1211.122,1436.065Zm-8.016-11.5c.182,1.19.479,1.643.421,1.754C1203.394,1425.994,1202.719,1424.635,1203.106,1424.563Zm.356-1.422c0,.067,0,.049-.016.035A.2.2,0,0,1,1203.462,1423.141Zm.045.572c.15.993.359.752-.125.587a3.63,3.63,0,0,1-.02-.749C1203.4,1423.592,1203.446,1423.64,1203.507,1423.713Zm11.6,3.91c.124-.1.106-.094.072-.036C1214.966,1427.958,1215,1427.9,1215.109,1427.623Zm-.018-1.123c.015-.014.015-.019,0,.021Zm.268,3.026c.141-.083.288-.182.42-.279-.13.21-.656.992-.908,1.3-.41.3-.316.267-.247-.129A9.734,9.734,0,0,0,1215.359,1429.526Zm.036-2.649c.347-.966.137-.745.489-.976C1215.592,1426.843,1215.584,1426.735,1215.395,1426.877Zm-.357,3.548-.017.013Zm-.445-2.9c-.471.422-.439.572-.092-.33C1214.66,1426.972,1214.676,1426.833,1214.593,1427.522Zm-1.1-1.464c-.179-.137-.306-.038.09-.575C1214.374,1424.8,1213.843,1425.167,1213.492,1426.059Zm.009,5.516c-.023.066-.016.063-.024,0Zm-.257-3.7c.01.067.017.115.028.164C1213.168,1428.181,1213.129,1428.282,1213.244,1427.872Zm-.2-1.251c.08-.284.071-.3.172-.214Q1213.13,1426.512,1213.046,1426.621Zm.293,2.284c-.072.142-.058.133-.07.11Zm.626-2.473c.307-.415.177-.206-.052.3C1213.85,1426.55,1213.823,1426.623,1213.965,1426.432Zm.458,1.827c-.114.27-.048.161-.263.38C1214.109,1428.608,1214.053,1428.649,1214.423,1428.259Zm-6.835,4.9c-.126-.273-.149-.26-.116-.266.345,0-.012-.5.546.68C1208.276,1434.1,1208.536,1434.557,1207.589,1433.161Zm-.773-1.765c-.371-.888-.158-.453.234.19.26.436.2.264.25.447.042.151.162.543.1.56C1207.3,1432.6,1207.325,1432.608,1206.816,1431.4Zm-2.9-5a.472.472,0,0,1,.455.386c.861,2.03,1.67,2.9,1.6,3.161C1205.462,1430.009,1204.163,1427.189,1203.912,1426.4Zm.576-2.44c.129.955.774,2.117.1.808-.654-1.273-.789-.876-.783-1.577A3.459,3.459,0,0,1,1204.488,1423.955Zm-.536-1.252a1.017,1.017,0,0,1,.555.294c-.13.539.164.479-.446-.027C1204,1422.915,1203.677,1422.762,1203.952,1422.7Zm1.069.109c.229-.138.592.166.781.354-.384.417.094.9-.4.257C1204.922,1422.813,1204.894,1422.926,1205.021,1422.811Zm2.049,4.492a3.572,3.572,0,0,1,.278.709,11.928,11.928,0,0,0-1.665-2.645c-.865-1.725-.9-1.253-.85-2.043C1206.045,1424.709,1206.183,1425.677,1207.07,1427.3Zm.069,1.505c-.455-1.133-.944-1.829-.093-.6C1207.6,1429.308,1207.435,1428.892,1207.139,1428.809Zm.176,1.661c-.084-.15-.082-.081-.241-.807A4.48,4.48,0,0,1,1207.315,1430.47Zm-.527.034c-.053-.087-.046-.071-.021-.05Zm-1.189-4.548c-.091-.024-.044.045-.114-.117C1205.458,1425.689,1205.43,1425.571,1205.6,1425.956Zm.187,2.872c.012.053.06.129-.2-.339Zm-.454-1.6c-.368-.487-1.086-1.934-.521-1.007A3.354,3.354,0,0,1,1205.331,1427.228Zm-.125-2.07c.009.019.057.1.041.113Zm-1.117-.614c.6.989.326.593.094.35C1203.946,1424.268,1204,1424.392,1204.09,1424.543Zm1.524,5.673c-.354-.578.04.114.541.159C1206.306,1431.377,1207.212,1432.792,1205.614,1430.217Zm.642-.688c.018.023.011,0,.041.166C1206.266,1429.644,1206.284,1429.69,1206.255,1429.528Zm.287-.555c-1.131-2.524.019-.3.1.074C1206.61,1429.181,1206.663,1429.247,1206.542,1428.973Zm-.585-5.492c.161-.294,1.408,2.171,1.482,2.458.077.314.344,1.053.459,1.344.136,1.169.483,1.664-.286.322C1206.766,1425.263,1205.744,1424.107,1205.957,1423.481Zm1.643,1.532c.408.68.291.409.2.631C1207.787,1425.68,1207.765,1426.036,1207.6,1425.013Zm4.281,9.078c-.055-.16-.038-.17-.024-.212.2-.262.233-.367.065.182C1211.9,1434.14,1211.906,1434.141,1211.881,1434.091Zm-.138.528c-.037.1-.024.1-.047-.024l.011.008Zm-.02-2.343,0-.02Zm-.356-1.363c.132-.772.057-.61.27-.746.176-.112.15-.111.157-.079C1211.855,1430.352,1211.959,1430.234,1211.367,1430.913Zm.135,4.639c-.062.09-.052.1-.034-.061C1211.48,1435.512,1211.491,1435.532,1211.5,1435.552Zm-.182-3.9c-.017-.136-.032-.089.084-.206C1211.314,1431.791,1211.344,1431.816,1211.32,1431.649Zm.411-3.763c.03-.053.024-.053.016.006Zm.085,1.711.02-.016Zm-.14-.568c-.123.208-.224.095-.346.3s-.1.244-.1.168a1.863,1.863,0,0,1,.293-1.211C1211.781,1428.345,1211.67,1428.392,1211.676,1429.029Zm-3.325-2.278c-.093-.042-.1.036-.176-.58-.03-.244-.167-.522.461.631C1209.5,1428.752,1208.71,1426.991,1208.351,1426.751Zm-.075,2.509c.182.808.23.673-.056.191-.108-.184-.048-.048-.181-.519C1208.128,1429.06,1208.183,1429.136,1208.276,1429.26Zm-.159,1.209c.408.9.641,1.514.876,2.187.223.637.242.576-.036.266-.112-.124,0,.027-.549-.869-.776-1.28-.555-.531-.768-1.639-.1-.5-.148-.225.269-.086C1208.068,1430.356,1208,1430.277,1208.117,1430.47Zm1.418,4.287c.166.393.148.336.083.293-.375-.311-.674-1.087-.905-.951-.519-1.04-.231-.341.375.027C1209.347,1434.289,1209.195,1434.012,1209.535,1434.757Zm-.228-1.14,0,0,0,.011Zm.408.189c.09.255,0,.177.015.667-.233-.493-.127-.185-.026-.458A.719.719,0,0,0,1209.716,1433.806Zm-1.844-1.583c.053-.458-.19-.378.74.736C1209.68,1434.75,1207.867,1432.261,1207.872,1432.223Zm1.462,2.982c.268.281.547.24.627.066.281.325.229-.077.2.463-.038.738.345.829-.668-.271C1209.44,1435.376,1209.385,1435.291,1209.333,1435.2Zm.9-1.26c-.044-.113-.092-.075.1-.8a4.606,4.606,0,0,1,.125,1.075C1210.4,1434.425,1210.459,1434.518,1210.237,1433.944Zm.48-1.883c.049-.036.079.289.078.334C1210.771,1432.283,1210.744,1432.172,1210.717,1432.061Zm.033-1.681c.019-.083.009-.076.026-.066C1210.78,1430.551,1210.792,1430.542,1210.75,1430.38Zm-.989.776c-.379-.852-.264-.546.015-.161C1209.771,1431.049,1209.765,1431.1,1209.761,1431.156Zm.089,1.072c.275.556.249.225.076.9-.476-1.258-.665-1.88-.971-2.819C1208.749,1429.66,1208.994,1430.453,1209.85,1432.228Zm-.548-2.75c-.9-1.792-1.164-2.822-.365-.974C1208.836,1428.284,1209.533,1429.932,1209.3,1429.477Zm3.319-2.921c-.223.8-.109,1.065-.426,1.6A2.951,2.951,0,0,1,1212.622,1426.556Zm0,2.289c-.171.188-.139.17-.162.095a1.806,1.806,0,0,1,.057-.395A2.012,2.012,0,0,0,1212.618,1428.845Zm.018,4.181c.305-.4.144-.334.326-.3.078.015.167-.133-.39.978C1212.406,1433.941,1212.476,1433.932,1212.636,1433.026Zm20.19,5.366c.008-.014,0-.013.019,0Zm-23.333-10.64c-.191-.408-.333-.642-.05-.126Zm-2.269-3.274c-.025.133,0,.138-.063.017C1207,1424.185,1206.825,1423.969,1207.224,1424.479Zm-2.548-1.831c-.086-.069-.117-.061.027-.034C1204.694,1422.625,1204.684,1422.635,1204.676,1422.647Zm-1.968,1.032c.263-.521.274-.438.373-.377-.134.666.062.954-.058.972-.266.037-.185.389-.344-.5C1202.689,1423.746,1202.7,1423.712,1202.708,1423.68Zm.733.983a2.083,2.083,0,0,1,.448.37c.307.8.265.617.249.778a1.605,1.605,0,0,0,.029.354C1203.8,1426.025,1203.777,1426.468,1203.441,1424.663Zm.547,3.26c1.1,2.041,1.257,2.127.9,1.666A7.315,7.315,0,0,1,1203.988,1427.923Zm.86,1.622-.025-.031Zm8.625,3.83c.036-.247.784-2.215.1-.121Zm.8-1.053c.094.02.123-.071-.176.294C1214.209,1432.233,1214.152,1432.3,1214.27,1432.322Zm.191-.423c-.373.03.082.009,1.083-.962C1214.676,1431.894,1214.884,1431.818,1214.461,1431.9Zm2.431-4.678.015-.019Zm.058-.2.026,0Zm-.018-1.69c.014-.04,0-.03.042-.048Zm.012,1.79c0,.041-.184.3-.214.269C1216.931,1427.031,1216.906,1426.943,1216.944,1427.119Zm-.34-2.911c.03-.02.29-.2.286-.161-.03.2-.028.188-.054.222C1216.506,1424.7,1216.657,1424.652,1216.6,1424.208Zm.2,2.1-.011.026Zm-.141,3.3c.07-.021.119-.1-.238.325C1216.5,1429.822,1216.586,1429.716,1216.661,1429.6Zm-13.161-6.88c-.012.052,0,.031-.086.061C1203.424,1422.776,1203.482,1422.736,1203.5,1422.724Zm-1,1.822c.009-.069.31,1.033.812,2.047.2.405.046.493.338,1.258A4.914,4.914,0,0,1,1202.5,1424.546Zm8.4,12.74c-.166-.239-.012-.229.059-.3.205-.2.167-.577.25-.314C1211.114,1436.881,1211.016,1437.088,1210.9,1437.287Zm2.658-2.756.017-.021Zm5.469-10.631c.123.353.07.157-.212.148C1218.894,1423.626,1218.814,1423.468,1219.03,1423.9Zm-1.3-.926c.139.028.119-.008-.171.175-.441.274-.246.23-.438-.018a.475.475,0,0,0-.215-.168A5.167,5.167,0,0,1,1217.726,1422.974Zm-1.373.054a10.855,10.855,0,0,0-1.189.751c-.049-.085-.068-.135-.149-.165A3.8,3.8,0,0,1,1216.353,1423.028Z" transform="matrix(0.921, 0.391, -0.391, 0.921, -544.169, -1778.183)" fill="#e42c2a"/>
</svg>
