<svg xmlns="http://www.w3.org/2000/svg" width="8.552" height="11.527" viewBox="0 0 8.552 11.527">
  <path id="Dessin_07" data-name="Dessin 07" d="M1190.806,657.266c.5.059.763.024,1.014.069a.32.32,0,0,1,.236.469c-.116.2-1.021.439-1.232.472-.51.082-.593.03-1.383.184-.508.1-.443.07-.418.154.079.248.451,1.965.586,2.54a15.967,15.967,0,0,1,.593,2.564.331.331,0,0,1-.492.315,1.7,1.7,0,0,1-.411-.579,30.723,30.723,0,0,1-2.168-3.738c-.418.528-.757,1.41-1.732,2.628a.349.349,0,0,1-.638-.193,39.18,39.18,0,0,1,1.376-3.857c-.566-.6-1.061-1.243-1.812-2-.512-.512-.994-.81-.681-1.118.2-.2.454-.024.627.062a16.8,16.8,0,0,1,2.321,1.111,5.391,5.391,0,0,0,.478.26c.573-4,.536-3.842.577-3.9a.317.317,0,0,1,.548,0,21.864,21.864,0,0,1,.575,4.3A8.7,8.7,0,0,1,1190.806,657.266Zm.076.011-.042-.006Zm-1.9,1.151c0,.007,0,.015,0,.022Zm-1.758-.781c.134.039.1.108.083-.2C1186.939,657.348,1187.093,657.386,1187.22,657.647Zm-.122-.258-.016.007Zm.735.428c.121.839.064.422.142.167C1187.851,657.591,1187.779,657.373,1187.834,657.817Zm-.022-1.115c.16-.052.267.049.36.176-.006-.233-.048-.895-.113-1.453A5.317,5.317,0,0,0,1187.811,656.7Zm1.406,5.343c-.344-1.156-.086-.657-.288-.439Zm-1.758-3.532c-.1-.433,0-.253-.24-.274-.207.181-.24-.15-.212.56C1187.588,658.5,1187.733,659.737,1187.459,658.513Zm-.719.562c-.263-.015-.072-.3-.354.377C1186.309,659.642,1186.172,659.824,1186.74,659.075Zm-1.44-2.661c.854.956.39.58.564.348C1185.91,656.7,1185.982,656.748,1185.3,656.414Zm3.62,1.253a.287.287,0,0,1-.271.24c.055.075-.042.042.3-.048C1189.534,657.7,1190.3,657.69,1188.921,657.667Z" transform="translate(-1183.544 -652.551)" fill="#f7941d"/>
</svg>
