<svg xmlns="http://www.w3.org/2000/svg" width="13.478" height="18.166" viewBox="0 0 13.478 18.166">
  <path id="Dessin_08" data-name="Dessin 08" d="M1185.578,659.982c-.781.093-1.2.038-1.6.109a.5.5,0,0,0-.371.738c.183.319,1.61.691,1.942.744.8.13.934.047,2.18.29.8.155.7.111.658.243-.124.39-.71,3.1-.924,4a25.176,25.176,0,0,0-.935,4.04.522.522,0,0,0,.775.5,2.672,2.672,0,0,0,.648-.912c1.257-2.218,2.113-2.959,3.417-5.89.658.833,1.193,2.221,2.729,4.141a.55.55,0,0,0,1.006-.3c.041-.833-1.991-5.3-2.169-6.079.892-.943,1.672-1.959,2.855-3.148.807-.807,1.567-1.276,1.074-1.763-.317-.317-.716-.038-.988.1a26.471,26.471,0,0,0-3.658,1.75,8.468,8.468,0,0,1-.753.41c-.9-6.3-.845-6.055-.909-6.15a.5.5,0,0,0-.864,0,34.477,34.477,0,0,0-.906,6.78A13.71,13.71,0,0,0,1185.578,659.982Zm-.119.017.067-.009Zm3,1.814a.345.345,0,0,1,0,.035C1188.46,661.836,1188.458,661.813,1188.458,661.813Zm2.771-1.231c-.211.061-.156.17-.131-.317C1191.672,660.111,1191.429,660.172,1191.228,660.582Zm.192-.406.025.011Zm-1.158.674c-.19,1.322-.1.664-.224.264C1190.234,660.494,1190.347,660.151,1190.261,660.85Zm.035-1.757c-.252-.082-.421.077-.568.277.01-.367.076-1.41.178-2.289A8.376,8.376,0,0,1,1190.3,659.093Zm-2.216,8.421c.542-1.822.136-1.035.454-.692C1188.384,667.053,1188.232,667.283,1188.081,667.514Zm2.771-5.566c.155-.683-.006-.4.379-.431.326.285.378-.237.335.882C1190.649,661.925,1190.42,663.876,1190.852,661.948Zm1.133.885c.415-.024.113-.48.557.594C1192.665,663.727,1192.88,664.013,1191.984,662.833Zm2.269-4.194c-1.346,1.506-.615.914-.89.548C1193.292,659.09,1193.18,659.165,1194.253,658.639Zm-5.705,1.975a.453.453,0,0,0,.427.378c-.086.119.067.066-.478-.076C1187.581,660.672,1186.369,660.649,1188.548,660.613Z" transform="translate(-1183.544 -652.551)" fill="#f7941d"/>
</svg>
