<svg xmlns="http://www.w3.org/2000/svg" width="55.943" height="46.505" viewBox="0 0 55.943 46.505">
  <g id="Dessin_04" data-name="Dessin 04" transform="translate(-1851.938 -519.549)">
    <path id="Tracé_196" data-name="Tracé 196" d="M1946.71,556.8c-1.244-2.583-1.492-2.891-1.835-3.645-.34-.869-.26-1.106-.452-1.51-.311-.646-1.3-.838-1.8.224-1.85,3.959-.267.983-2.287,4.371-.9,1.5-.549,1.739-2.281,4.535-1.078,1.738-1.859,2.343-1.108,3.286.025.165.546,1.3.306.724.852,2.034.657,2.578,1.758,6.733-1.635.063-2.592-.482-2.738.473-4.473-2.8-4.255-4.279-6.068-1.9a20.364,20.364,0,0,1-2.172,2.409c-2.252,2.1-2.508,3.074-3.9,4.174-1.828,1.366-2.457,1.357-2.448,2.06.026,2.044,4.306,0,20.813,5.667,5.623,1.927,12.431,3.677,15.044,4.758a16.812,16.812,0,0,0,2.825,1.035.707.707,0,0,0,1.036-.8C1960.5,586.841,1947.394,558.214,1946.71,556.8Zm-22.7,19.966.067-.052Zm.076,3.164.061.009Zm20.035-27.072-.066.155Zm-2.854,20.328c.192.38.347.384-.556.019-.385-.965-.267-.757-.212-1C1940.63,571.625,1940.145,570.964,1941.265,573.182Zm1.207,2.245c.121.2.165.191-.061.063C1942.431,575.469,1942.453,575.45,1942.472,575.427Zm4,2.234c.2.193.3.223-.382-.166C1946.267,577.38,1946.1,577.314,1946.469,577.661Zm5.142,3.278c-.028-.034-.379-.486-1.03-1.2.237-.436-.184-.818.635.19C1953.018,582.14,1952.817,581.75,1951.611,580.939Zm-7.5-9.072c-.138-.222-.252-.319.313.285C1944.324,572.054,1944.22,571.958,1944.112,571.866Zm-3.979-4.6c.072.08.145.16.217.241C1940.173,567.409,1940.231,567.525,1940.133,567.263Zm-8.231,3.29-.023,0Zm22.6,16.07c-8.594-2.387-18.525-6.8-30.139-8.278a9.831,9.831,0,0,0,2.752-2.727c1.483-1.88,2.039-1.91,4.058-4.249.661-.774.493-.739.738-.551,6.94,5.312,12.335,6.518,23.252,13.991.159.108,1.468,2,2.271,2.768A27.377,27.377,0,0,0,1954.5,586.623Zm1.345-9.7-.11-.258C1955.758,576.71,1955.831,576.882,1955.847,576.92Zm-6.259-9.713c5.538,10.933,5.021,11.076,9.2,19.582-1.528-1.543-.888-1.245-6.89-8.588-1.646-2.019-11.194-13.185-13.084-15a20.063,20.063,0,0,0,2.2-3.807c1.665-4.021,1.436-2.628,2.495-5.079.245.495,1.253,2.247,3.162,6.3C1948.083,563.6,1948.08,564.234,1949.588,567.207Z" transform="translate(-53.552 -24.236)" fill="#4d2c86"/>
    <path id="Tracé_197" data-name="Tracé 197" d="M1853.017,519.549a1.074,1.074,0,0,0-.554,2c2.522,1.342,2.492,1.42,5.239,4.309a23.974,23.974,0,0,1,2.986,4.405,4.87,4.87,0,0,0-3.222,1.235c-2.785,2.493-3.615,7.1-.323,7.992a4.962,4.962,0,0,0,4.991-1.27c1.3-1.348,1.274-4.529.9-6.361,5.707-.076,9.913,2.709,14.454,6.136,2.908,2.326,3.156,3.6,3.9,2.858a.636.636,0,0,0,0-.885c-2.983-3.285-8.911-7.676-13.273-8.981a26.481,26.481,0,0,0-5.6-.858C1860.776,525.937,1855.161,519.549,1853.017,519.549Zm8.288,12.38a8.792,8.792,0,0,1-.041,4.642,2.968,2.968,0,0,1-4.135.818,3.416,3.416,0,0,1,.077-2.527C1858.515,532.118,1860.107,532.012,1861.305,531.93Z" transform="translate(0)" fill="#4d2c86"/>
  </g>
</svg>
