<svg xmlns="http://www.w3.org/2000/svg" width="29.866" height="49.428" viewBox="0 0 29.866 49.428">
  <g id="Dessin_09" data-name="Dessin 09" transform="translate(-755.546 -815.027)">
    <path id="Tracé_164" data-name="Tracé 164" d="M770.907,863.981c-1.255,1.906-2.024-1.807-2.21-2.632a44.227,44.227,0,0,1-.768-4.606c-.379-3.254-.529-6.538-1.146-9.761-2.053-.436-8.254,8.287-8.573,4.841,4.867-13.953,8.159-6.158-2.141-19.455-1.279-1.223.04-2.477,1.272-1.9,3.578,1.057,6.262,3.493,9.646,5.031,2.065-6.427,2.54-13.228,4.456-19.713,3.164-4.178,2.308,17.345,3.328,19.037a10.047,10.047,0,0,0,3.619-2.854c10.738-9.463,2.682,3.462-.016,7.419-.607.762,3.469,5.422,5,6.992,2.322,4.852-6.8-.89-8.683.242a79.557,79.557,0,0,0-2.3,9.313c-.3,1.572-.57,3.149-.825,4.729C771.4,861.655,771.485,863.1,770.907,863.981Zm1.19-41.519a5.022,5.022,0,0,0-1.235,2.911c-.786,3.8-1.914,7.668-1.686,11.591a1.137,1.137,0,0,1-1.408,1.268c-2.411-.977-4.507-2.661-6.775-3.934-.388-.232-.788-.609-1.362-.3.352,2.541,6.446,5.623,5.53,7.78-1.494,1.993-3.091,3.953-3.423,6.5,1.747-.41,5.765-7.084,6.489-4.272.373,4.343.765,8.7,1.489,13.009.045.271.077.635.628.654,1.21-4.086,1.395-8.479,2.857-12.478.684-2.178,4.865.565,6.673.241-.52-1.5-5.078-4.589-3.494-6.4,1.4-2.094,3.552-4.255,3.963-6.711-2.335,1.183-4.134,5.322-6.944,5.214-.574-.306-.591-.913-.659-1.467C772.766,831.532,772.4,826.992,772.1,822.462Z" transform="translate(0 -0.064)" fill="#fac50c"/>
    <path id="Tracé_165" data-name="Tracé 165" d="M782.694,860.971c-.76,2.218-1.229,4.531-1.769,6.81-.263,1.112-.53,2.223-.786,3.336a13.126,13.126,0,0,0-.6,3.414c.007.162.315.147.375.032a13.948,13.948,0,0,0,.95-3.388c.258-1.143.5-2.29.754-3.435.488-2.237,1.056-4.474,1.319-6.75C782.95,860.9,782.72,860.894,782.694,860.971Z" transform="translate(-7.015 -13.418)" fill="#fac50c"/>
    <path id="Tracé_166" data-name="Tracé 166" d="M784.443,863.344c-.531,1.84-.947,3.706-1.356,5.576q-.3,1.38-.6,2.76a10.434,10.434,0,0,0-.451,2.745c.013.192.362.178.434.038a10.924,10.924,0,0,0,.726-2.731l.6-2.851c.387-1.828.763-3.655,1.028-5.505C784.844,863.227,784.48,863.214,784.443,863.344Z" transform="translate(-7.743 -14.102)" fill="#fac50c"/>
    <path id="Tracé_167" data-name="Tracé 167" d="M762.708,852.291a7.642,7.642,0,0,0-1.078,1.782c-.3.6-.59,1.2-.885,1.805s-.58,1.205-.867,1.809a4.862,4.862,0,0,0-.691,1.878c0,.136.245.11.309.051a5.762,5.762,0,0,0,1.062-1.792c.29-.6.581-1.2.863-1.81s.568-1.208.846-1.815a6.468,6.468,0,0,0,.668-1.872C762.946,852.234,762.748,852.247,762.708,852.291Z" transform="translate(-1.065 -10.886)" fill="#fac50c"/>
    <path id="Tracé_168" data-name="Tracé 168" d="M760.445,852.859a3.538,3.538,0,0,0-.959,1.288c-.289.512-.555,1.037-.792,1.574a8.291,8.291,0,0,0-.948,3.241c0,.157.307.139.364.03a10.965,10.965,0,0,0,.615-1.607q.265-.783.6-1.543c.219-.5.456-1,.713-1.488.132-.25.279-.492.405-.745a1.885,1.885,0,0,0,.271-.686C760.716,852.813,760.505,852.821,760.445,852.859Z" transform="translate(-0.643 -11.055)" fill="#fac50c"/>
    <path id="Tracé_169" data-name="Tracé 169" d="M783.263,828.1q-.036-2.219-.2-4.433c-.1-1.449-.255-2.891-.444-4.331a22.94,22.94,0,0,0-.806-4.243c-.03-.092-.282-.086-.282.023,0,1.438.259,2.878.4,4.307s.258,2.887.344,4.332.138,2.9.159,4.346c.011.7,0,1.392.006,2.087a8.834,8.834,0,0,0,.129,2.132c.045.174.432.161.485,0a7.576,7.576,0,0,0,.214-2.132C783.286,829.492,783.273,828.794,783.263,828.1Z" transform="translate(-7.598 0)" fill="#fac50c"/>
    <path id="Tracé_170" data-name="Tracé 170" d="M785.772,826.738q-.063-1.69-.21-3.376a39.6,39.6,0,0,0-1.069-6.385c-.027-.107-.328-.095-.315.026.226,2.146.455,4.294.62,6.445q.123,1.6.17,3.2a14.226,14.226,0,0,0,.271,3.149c.026.1.292.1.32,0A9.886,9.886,0,0,0,785.772,826.738Z" transform="translate(-8.372 -0.549)" fill="#fac50c"/>
    <path id="Tracé_171" data-name="Tracé 171" d="M772.793,822.111a17.99,17.99,0,0,0-.849,3.189q-.393,1.6-.822,3.193-.419,1.551-.9,3.085-.253.808-.507,1.614a5.182,5.182,0,0,0-.339,1.516c0,.168.323.173.4.069a9.216,9.216,0,0,0,1.145-2.882q.5-1.618.925-3.254.419-1.6.749-3.212a12.563,12.563,0,0,0,.47-3.3C773.061,822.022,772.833,822.024,772.793,822.111Z" transform="translate(-4.044 -2.053)" fill="#fac50c"/>
    <path id="Tracé_172" data-name="Tracé 172" d="M794.2,837.105a8.508,8.508,0,0,0-1.21,1.962q-.568,1-1.134,2.007a44.782,44.782,0,0,0-2.243,4.1c-.1.234.381.289.49.139a45.207,45.207,0,0,0,2.357-3.962q.6-1.037,1.2-2.075.257-.446.511-.894a4.18,4.18,0,0,0,.553-1.125C794.779,836.971,794.343,836.966,794.2,837.105Z" transform="translate(-9.957 -6.43)" fill="#fac50c"/>
    <path id="Tracé_173" data-name="Tracé 173" d="M795.556,839.257a5.5,5.5,0,0,0-.967,1.439c-.334.568-.664,1.138-1,1.707-.647,1.109-1.365,2.2-1.911,3.368-.1.221.371.279.474.134.742-1.033,1.347-2.177,2-3.271.336-.567.674-1.133,1.01-1.7a5.192,5.192,0,0,0,.811-1.6C796,839.133,795.634,839.191,795.556,839.257Z" transform="translate(-10.562 -7.067)" fill="#fac50c"/>
  </g>
</svg>
