<svg xmlns="http://www.w3.org/2000/svg" width="67.323" height="41.194" viewBox="0 0 67.323 41.194">
  <g id="Dessin_02" data-name="Dessin 02" transform="translate(-1438.005 -1950.456) rotate(8)">
    <path id="Tracé_253" data-name="Tracé 253" d="M1703.274,1752.481a12.553,12.553,0,0,0,3.652,1.057c.147.024,8.759.729,8.784.73,1.189.056.935-.08,1.292.452.081.12,2.554,3.688,2.972,4.09,6.491,6.246,19.6,6.728,26.583-2.388.415-.539,1.3-1.7,1.207-2.115a4.942,4.942,0,0,0,.561-.692,27.418,27.418,0,0,0,3.821-.683,13.29,13.29,0,0,0,5.268-1.588c1.586-.624,1.75-.291,3.342-1.3,1.925-1.227,3.465-3.464,2.055-5.516-.821-1.183-2.455-1.365-4.779-1.83-2.935-.591-5.007-.686-6.386-.906-5.947-1-1.641,1.448-4.842-3.073a23.432,23.432,0,0,0-4.19-5.106c-5-3.737-10.065-3.584-15.806-1.135-3.15,1.344-5.309,2.447-7.467,5.693-1.741,2.609.6.961-5.45,1.582C1697.646,1741.418,1697.851,1749.884,1703.274,1752.481Zm28.973,9.633c-4.292-.063-4.035-.609-6.228-1.133a20.475,20.475,0,0,1-3.632-1.759c-.725-.493-.333-.172-1.705-1.855a5.8,5.8,0,0,1-.787-1.785c-.062-.2-.093-.162.143-.168a29.887,29.887,0,0,1,3.268-.064c3.014.055,1.847-.175,4.064-.175,2.027,0,1.716.294,4.8.343,3.244.056,4.026-.515,6.9-.74,1.039-.082,6.068-.1,6.848-.182.548-.054.527-.261-.55,1.083a.429.429,0,0,0-.007.6C1742.192,1760.116,1738.142,1762.208,1732.247,1762.114Zm26.591-17.406a27.413,27.413,0,0,0-3.137-.15c-1.411-.019-1.406-.146-2.891-.244-3.229-.208-2.59.258-2.81-.533C1756.081,1743.441,1759.741,1744.846,1758.838,1744.708Zm2.526,1.27c.353,1-3.545,4.559-11.4,5.054a67.5,67.5,0,0,1-7.65.447c-.135,0-2.146-.033-4.844.194-6.384.521-5.97-.376-12.7.082-4.886.333-4.972-.443-11.644-.658-1.651-.053-7.014.128-9.566-.893a2.3,2.3,0,0,1-1.437-1.9c-.684-2.846.946-3.181,6.757-5a7.383,7.383,0,0,0-4.078,2.474,1.893,1.893,0,0,0,.208,2.566c2.187,1.923,10.436,1.551,15.291,1.852,3.356.207,2.645.659,10.8.505,3.545-.061,24.638.33,28.669-3.423.426-.393,1.149-1.193.923-1.724C1760.93,1745.648,1761.261,1745.756,1761.364,1745.979Zm.017.028c0,.022.007.043.009.064Zm-20.229-11.994-.053-.042Zm7.789,13.625a8.383,8.383,0,0,0,.107-2.049c.555.644,7.038-.629,8.194.526a4.893,4.893,0,0,1-1.214.711C1755.142,1747.2,1755.366,1747.062,1748.941,1747.637Zm-1.087.981a21.08,21.08,0,0,1,3.014-.21c3.683-.341,4.482-.214,5.594-.764,1.492-.733,2.285-1.725.763-2.406.631.017,2.388.045,2.861.554-1.116,2.1-5.188,2.615-8.846,3.079-.217.439-.673.077-7.779.785-.577.059-16.538.253-18.94.088-5.024-.352-.485-.315-7.1-.414-3.266-.043-.469-.052-6.608-.263-8.23-.282-6.934-4.068.556-5.735-2.464.805-4.846,2.181-2.968,3.968C1710.744,1749.527,1744.8,1748.771,1747.854,1748.617Zm-33.942-4.768a22.12,22.12,0,0,1,2.942-.093,21.719,21.719,0,0,0-.614,3.659c0,.025-5.51.006-6.82-.612a1.091,1.091,0,0,1-.6-.745C1708.824,1745.213,1712.419,1744.057,1713.912,1743.85Zm1.622-1.309c.027.183.2.078-.958.142Q1715.054,1742.607,1715.534,1742.541Zm.105-.623c-3.037.37-3.71.742-.31-.192C1715.878,1741.575,1715.778,1741.524,1715.639,1741.918Zm10.638-7.973c3.291-1.437,6.447-2.776,10-1.966s6.089,2.323,8.822,6.278a4.144,4.144,0,0,1,1.1,1.793c.541,1.982,1.634,3.9,1.71,6.813.011.432.08.894-.349.894-2.845.247-26.861.144-29.971-.175-.233-2.2-.137-2.383.111-3.239.193-.675.158-.585.272-.585a6.256,6.256,0,0,1,.786-2.395c.056-.209.091-.339.22-.386C1720.041,1739.214,1720.978,1736.27,1726.277,1733.945Zm-19.819,8.483a23.536,23.536,0,0,1,9.152-2.052c.631-.017.522-.046.493.191-.059.309,0,.22-.439.349-6.891,2.068-2.5.257-9.912,2.689-1.433.467-3.02.932-3.957,2.071C1701.727,1745.759,1702.554,1744.052,1706.458,1742.428Zm-5.171,4.427a6.323,6.323,0,0,0,.275,2.151c.9,3.23,8.135,2.7,12.232,2.879,4.883.209,6.4.833,9.766.71a51.583,51.583,0,0,1,5.9-.153c1.851.056,2.1.168,3.8.19,2.878.05,5.643-.375,7.676-.4a70.653,70.653,0,0,0,9.681-.572c7.142-.59,13.473-4.96,10.732-6.523-.1-.06-.539-.242-.643-.285-2.186-.949-.893-1.177-6.821-1.73-4.085-.373-3.89.518-4.288-.413.963-.019,4.269.4,5.058.434a12.258,12.258,0,0,1,3.242.377c2.8.475,3.674.678,4.244,1.378,1.516,2.206-1.491,4.438-3.146,4.957-5.547,1.754-.747.889-9.184,2.526-1.949.375-16.944.985-17.993,1.062-9.033.656-9.97.073-20.225-.367a.257.257,0,0,1-.25-.223c-2.394-.208-7.362-.232-9.215-2.471C1700.944,1748.729,1700.962,1747.851,1701.287,1746.854Z" transform="translate(0 0)" fill="#e63c1d"/>
    <path id="Tracé_254" data-name="Tracé 254" d="M1928.159,1763.746a5.845,5.845,0,0,1,2.325,2.307c1.846,2.784,1.625,2.421,2.032,4.646a4.23,4.23,0,0,0,.185.774.488.488,0,0,0,.89.116,9.477,9.477,0,0,0-.592-2.943c-.438-1.157-3.44-5.551-4.658-5.552A.35.35,0,0,0,1928.159,1763.746Z" transform="translate(-188.108 -26.717)" fill="#e63c1d"/>
    <path id="Tracé_255" data-name="Tracé 255" d="M1938.176,1804.513a.434.434,0,0,0-.305.738,2.539,2.539,0,0,1,1.061,1.511.428.428,0,0,0,.825-.228A2.9,2.9,0,0,0,1938.176,1804.513Z" transform="translate(-196.156 -60.885)" fill="#e63c1d"/>
    <path id="Tracé_256" data-name="Tracé 256" d="M1900.361,1876.714a.353.353,0,0,0-.253-.6c-.2,0-.267.125-.5.39a8.565,8.565,0,0,1-4.386,2.336c-.446.049-.852-.011-.852.318a.266.266,0,0,0,.266.265A9.05,9.05,0,0,0,1900.361,1876.714Z" transform="translate(-160.378 -119.951)" fill="#e63c1d"/>
    <path id="Tracé_257" data-name="Tracé 257" d="M1917.68,1876.924c-.677-.4-.857,1.152-3.069,2.622-1.028.684-1.681.418-1.885.764-.621,1.051,2.258.994,5.108-2.8A.43.43,0,0,0,1917.68,1876.924Z" transform="translate(-175.448 -120.569)" fill="#e63c1d"/>
  </g>
</svg>
