<svg xmlns="http://www.w3.org/2000/svg" width="34.712" height="26.1" viewBox="0 0 34.712 26.1">
  <g id="Dessin_01" data-name="Dessin 01" transform="translate(264.32 -575.204) rotate(11)">
    <g id="Groupe_136" data-name="Groupe 136" transform="translate(-146.231 613.116)">
      <path id="Tracé_276" data-name="Tracé 276" d="M-142.249,628.614c-2.16,1.612,2.751,5.677,3.947,7,7.4,6.959,16.571,3.081,22.5-3.666C-122.591,620.777-132.793,620.086-142.249,628.614Zm14.081,9.536c-4.911.305-9.393-3.3-12.082-7.146-1.5-1.531.454-2.378,1.631-3.268,2.5-1.93,5.328-3.7,8.6-3.635,4.949-.118,8.428,3.218,11.435,6.791C-116.154,633.339-126.139,638.088-128.168,638.151Z" transform="translate(144.143 -616.937)" fill="#ed77ab"/>
      <path id="Tracé_277" data-name="Tracé 277" d="M-101.976,620.471a8.093,8.093,0,0,1-1.65,1.643c-.38.33-1.071,1.12-1.569,1.239a1.293,1.293,0,0,1-.249.031c-.591.019-.735-.573-.523-1.04a2.57,2.57,0,0,1,.535-.7l1.681-1.737a2.743,2.743,0,0,1,.865-.7C-101.708,618.7-101.5,619.712-101.976,620.471Z" transform="translate(130.276 -615.523)" fill="#ed77ab"/>
      <path id="Tracé_278" data-name="Tracé 278" d="M-96.156,628.347a9.689,9.689,0,0,1-1.332.759c-.629.33-1.737,1.587-2.484,1.338-.853-.286-.423-1.17.143-1.513.952-.579,1.7-1.513,2.689-2.017.772-.4,1.444-.218,1.606.205C-95.415,627.438-95.571,627.886-96.156,628.347Z" transform="translate(128.16 -618.401)" fill="#ed77ab"/>
      <path id="Tracé_279" data-name="Tracé 279" d="M-141.2,623.379a.547.547,0,0,1-.012.2c-.523,2.135-2.658-1.058-3.187-1.643a2.111,2.111,0,0,1-.535-.828c-.23-.915.784-1.282,1.426-.965s1.058,1.22,1.432,1.787A5.078,5.078,0,0,1-141.2,623.379Z" transform="translate(144.964 -615.885)" fill="#ed77ab"/>
      <path id="Tracé_280" data-name="Tracé 280" d="M-113.77,614.012a6.173,6.173,0,0,1-.585,1.973c-.274.691-.828,2.123-1.824,1.818-.847-.7.7-4.252,1.575-4.407C-113.975,613.283-113.77,613.576-113.77,614.012Z" transform="translate(134.189 -613.371)" fill="#ed77ab"/>
      <path id="Tracé_281" data-name="Tracé 281" d="M-132.092,617.854c-.056.361-.293.579-.8.479-.815-.149-1.394-2.06-1.662-2.714s.778-1.226,1.289-.784A5.114,5.114,0,0,1-132.092,617.854Z" transform="translate(141.052 -613.864)" fill="#ed77ab"/>
      <path id="Tracé_282" data-name="Tracé 282" d="M-118.85,631.838a4.6,4.6,0,0,1-1.632,3.857,6.177,6.177,0,0,1-5.162,1.491c-2.956-.575-5.182-3.516-3.846-6.444a6.032,6.032,0,0,1,7.137-3.173A5.019,5.019,0,0,1-118.85,631.838Z" transform="translate(139.272 -618.628)" fill="#ed77ab"/>
    </g>
    <path id="Tracé_283" data-name="Tracé 283" d="M-145.308,626.023c-.087-.075-.193-.118-.286-.193-.068-.056-.131-.112-.2-.174-.131-.124-.261-.255-.4-.38-.268-.243-.535-.492-.791-.747s-.529-.523-.8-.784a1.6,1.6,0,0,1-.542-.8c-.012-.081.149-.075.193-.062a2.336,2.336,0,0,1,.9.66c.249.255.5.51.753.772s.5.535.753.8c.124.131.249.261.367.392.062.068.118.131.174.205s.075.149.131.218C-144.953,626.066-145.233,626.085-145.308,626.023Z" transform="translate(0 -3.844)" fill="#ed77ab"/>
    <path id="Tracé_284" data-name="Tracé 284" d="M-110.839,615.222c.025.156-.1.305-.174.43s-.168.268-.249.4c-.174.274-.349.548-.523.828-.355.56-.7,1.127-1.077,1.674-.075.106-.436.056-.355-.1.324-.585.679-1.152,1.021-1.724.168-.28.336-.56.5-.834l.261-.429a.8.8,0,0,1,.33-.342C-111.014,615.085-110.858,615.116-110.839,615.222Z" transform="translate(-13.248 -0.912)" fill="#ed77ab"/>
    <path id="Tracé_285" data-name="Tracé 285" d="M-94.1,629.873a1.086,1.086,0,0,1-.386.436c-.187.149-.386.286-.579.429l-1.176.84c-.392.28-.784.56-1.176.834-.205.137-.4.274-.61.4s-.448.23-.666.355c-.056.037-.3-.006-.2-.087.168-.156.311-.324.486-.473s.367-.3.56-.448c.386-.286.766-.573,1.158-.853s.8-.585,1.2-.878a3.1,3.1,0,0,1,1.189-.685C-94.232,629.736-94.064,629.767-94.1,629.873Z" transform="translate(-18.65 -6.437)" fill="#ed77ab"/>
    <path id="Tracé_286" data-name="Tracé 286" d="M-129.118,616.906c-.012.056-.025.106-.037.162.012.056-.137.056-.162.012-.05-.106-.168-.118-.23-.212a2.088,2.088,0,0,1-.087-.237c-.068-.181-.143-.367-.212-.548-.137-.367-.268-.741-.4-1.108s-.268-.741-.4-1.108a2.221,2.221,0,0,1-.255-1.083c.025-.112.212-.112.28-.044a2.217,2.217,0,0,1,.467.946c.118.342.237.691.355,1.033.243.685.473,1.376.7,2.067A.117.117,0,0,1-129.118,616.906Z" transform="translate(-6.572)" fill="#ed77ab"/>
    <path id="Tracé_287" data-name="Tracé 287" d="M-99.392,621.706a.95.95,0,0,1-.349.467c-.162.156-.33.305-.492.461l-.965.89-.99.915a11.027,11.027,0,0,1-1,.878c-.1.068-.436.013-.305-.149a10.141,10.141,0,0,1,.971-.965l.952-.9c.33-.3.654-.616.984-.921.162-.156.33-.305.5-.461a1.136,1.136,0,0,1,.461-.3C-99.573,621.613-99.373,621.6-99.392,621.706Z" transform="translate(-16.914 -3.368)" fill="#ed77ab"/>
  </g>
</svg>
