<svg xmlns="http://www.w3.org/2000/svg" width="70.023" height="61.949" viewBox="0 0 70.023 61.949">
  <g id="Dessin_05" data-name="Dessin 05" transform="matrix(0.588, -0.809, 0.809, 0.588, 0, 23.455)">
    <path id="Tracé_238" data-name="Tracé 238" d="M.173,49.73c1.713,9.63,3.086,11.707,3.321,14.2.039.4,0,1.216.523,1.444,1.308.578,1.033-.962,4.139-7.012,2.638-5.156-.054,1.172,4.254-8.63.813-.718.437-2.821,6.361-22.114,1.367-4.468,2.162-4.834,5.275-13.389C27.4,5.005,30.852,2.82,27.833.994,26.49.176,21.71-.608,16.5.69c-.006,0,.111-.022-1.339.347-1.5-.469-2.714,3.167-4.24,6.191C8.474,12.111,9.738,9.981,6.693,17.2a72.9,72.9,0,0,0-4.34,13.242C1.326,34.639-.585,45.44.173,49.73Zm5.415,6.659.035,0ZM4.451,59.041l0,.035Zm.211,2.229c-.147.1-.332-1.281-.218-2.178.106-.751.1-.955.7-1.282A4.073,4.073,0,0,1,4.662,61.27ZM6.715,57.3a2.559,2.559,0,0,1-.365,1.081c-.054-1.27-.919-1,.051-1.155C6.77,57.184,6.73,57.186,6.715,57.3Zm-2.61.349c-.333-.026-.521.249-.634.563-.076-.273.263-.479.483-.583C4.231,57.525,4.158,57.545,4.105,57.644Zm.64,4.851c.023,0,.02-.007.006.025C4.75,62.511,4.748,62.5,4.746,62.494Zm6.343-12.115.024-.06Zm.048-.117A33.937,33.937,0,0,1,7.6,57a.647.647,0,0,0-.475-.643,11.475,11.475,0,0,0-3.092.222c-1.132.226-.769.889-1.109-.416a80.02,80.02,0,0,1-1.707-8.2c-.071-.771-.217.075,3-5.467a29.17,29.17,0,0,1,1.615,4.916c.2,1.025.877,1.1,1.256.707a5.338,5.338,0,0,0,.566-.78c2.93-4.691,1.648-5.966,3.29,1.634C11.184,50.139,11.5,49.387,11.137,50.262ZM16.853,6.628a19.384,19.384,0,0,0,4.183.318c-.338.763-.424.98-.81,1.737-2.851,5.626-2.671,7.293-4.637,12.09a56.207,56.207,0,0,0-3.071,7.909c-1.726,6.362-1.19,4.825-2.845,13.494-.989.317-1.669,2.3-2.9,4.323-.071-.312-.2-.825-.323-1.2-1.721-5.353-1.816-2.1-.94-6.86,2.569-13.7,2.312-9.446,5.267-18.2C13.55,12.035,14.776,10.613,16.853,6.628Zm-3.561,6.9.026-.059C13.309,13.492,13.3,13.511,13.292,13.531ZM4.435,43l-.026-.061Zm18.821-30.7C17.03,27.229,18.1,23.747,16.25,30.19c-.045.156-2.7,7.721-4.19,14.385-.519,2.317-.135,1.565-.866-.846-.829-2.761-.765,1.227.123-5.529,1.713-12.393,4.348-14.718,6.376-21.211a44.214,44.214,0,0,1,3.525-8.837c.658-1.453.428-1.243.873-1.282a20.7,20.7,0,0,0,3.4-.463c.941-.254.913-.458.7-.036C23.361,11.992,23.775,11.06,23.256,12.295ZM15.836,2.545c2.123-.374,3.229-1.149,5.77-1.222C22.728,1.29,28.1.939,28,2.69c-.572.255-.371,1.171-1.112,1.747C25,5.9,18.061,5.777,15.9,4.3,15.454,3.928,15.719,3.6,15.836,2.545ZM1.572,41.445c1.193-8.9,6.812-25.509,10.242-32.008C14.87,3.645,13.6,4.8,14.636,5.6c2.773,2.17,1.921-2.542-4.127,12.682-1.451,3.646-.826,2.8-2.415,6.405-2.372,5.4-2.014,7.434-2.883,10.756-.581,2.232-1.027,5.642-1.155,5.683a1.728,1.728,0,0,0-.785.7C.688,45.332.722,47.606,1.572,41.445Z" transform="translate(0)" fill="#6fcae7"/>
    <path id="Tracé_239" data-name="Tracé 239" d="M.381,1.974c.594.451,2.976.68,3.666-.3A.864.864,0,0,0,3.857.411c-.13-.075-.151-.2-.371-.256C.779-.5-.762,1.1.381,1.974Zm2.944-.607c-.023.016-.011-.039-.03-.134C3.4,1.24,3.546,1.17,3.326,1.367Zm-1-.163c.024.08.094.087-.2.072C2.191,1.25,2.259,1.225,2.328,1.2Z" transform="translate(19.44 2.415)" fill="#6fcae7"/>
  </g>
</svg>
