<svg xmlns="http://www.w3.org/2000/svg" width="81.355" height="73.986" viewBox="0 0 81.355 73.986">
  <g id="Dessin_06" data-name="Dessin 06" transform="translate(-435.451 -618.492)">
    <path id="Tracé_199" data-name="Tracé 199" d="M599.052,775.246a5.278,5.278,0,0,0,3.784,3c2.8.444,4.428.182,6.472-1.781a8.27,8.27,0,0,0,2.251-5.3,4.339,4.339,0,0,0-.58-2.162,2.859,2.859,0,0,0-1.342-1.7c-2.842-1.746-5.163-2.555-7.65-.51C599.677,767.7,597.827,772.54,599.052,775.246Zm1.624-3.164c.1-.7-.031-.46.225.024.4.758.458.121-.12.921C600.485,773.43,600.731,771.688,600.675,772.082Zm4.015,4.015a6.609,6.609,0,0,1,.711-1.227c1.431-1.282.875-1.549,2.522-2.27C609.387,772,608,774.269,604.691,776.1Zm3.147-6.2c-.47.6-.365.612-.477.388a1.91,1.91,0,0,1-.115-.486A2.564,2.564,0,0,0,607.837,769.893Zm-.071-1.072a1.013,1.013,0,0,1,.237-.012C608.192,768.856,607.8,768.824,607.767,768.821Zm-.989,2.5a.907.907,0,0,0,.277.221c.038.58.089.014-1.051,1a.919.919,0,0,0-.372.041A5.92,5.92,0,0,0,606.778,771.326Zm-5.332,3.281c-.2.248-.176.285-.251.153a1.544,1.544,0,0,1,.4-1.233.474.474,0,0,0,.876-.095c.046-.137-.023-.1.161-.064C602.7,773.384,602.057,773.835,601.445,774.607Zm.64.954c-.334.5-.186.423-.394.49C601.83,775.609,601.922,775.635,602.086,775.561Zm-.937-.994,0-.022Zm1.469,2.269c-.2-.086.343-.272.874-.573a1.724,1.724,0,0,0-.041.375C602.7,776.9,602.7,776.864,602.618,776.836Zm1.517-3.54c.251-.082.289-.093.533-.19C604.01,773.565,604.185,773.52,604.135,773.3Zm4.77-1.936-.009,0C608.914,771.344,608.906,771.349,608.905,771.36Zm-1.341-3.566c.067-.1,0-.1.189-.023C607.691,767.777,607.628,767.785,607.564,767.794Zm-1.584,1.427c.907,1.668-2.063,4.1-3.887,2.828-1.054-.884.264-2.394,1.024-2.744C604.94,768.609,605.479,769.468,605.981,769.22Zm3.242-.7c.527.538.861.77.772,2.556a.576.576,0,0,0-.625-.251c.313-.513.4-1.262-.174-1.562-.1-.05-.04.023.009-.2C609.3,768.632,608.915,768.21,609.223,768.523Zm-4.128-1.244a4.611,4.611,0,0,1,1.257.072,1.546,1.546,0,0,0-.333.478C604.942,767.256,604.4,767.414,605.094,767.279Zm-.691.2c.142-.054-.072.017-.138.254-.1.344.161.312-.123.326-.787.034-1.278.39-.947.136A6.284,6.284,0,0,1,604.4,767.483Z" transform="translate(-126.065 -113.616)" fill="#8dbd2f"/>
    <path id="Tracé_200" data-name="Tracé 200" d="M516.936,714.068c4.314,1.406,7.033.508,10.058-2.019,9.469-7.919-.993-5.915,14.731-.036.528,5.738,9.146,4.2,9.849-.8.24-1.742.287-3.321-.707-4.469.612-3.562,1.843-5.849-1.4-12.331-.493-.981-.392.132,3.6-2.6,1.862-1.278,4.387-2.5,6.221-6.331a7.152,7.152,0,0,0-1.268-7.318,8.761,8.761,0,0,0-2.437-2.064c-2.835-2.227-7.547-2.225-11.151-2.057a30.368,30.368,0,0,0-.759-7.2c-.176-3.436-1.484-3.77-1.565-4.248s-1.137-1.437-1.493-1.722c.509-3.732-2.5-7.454-6.281-5.333a8.572,8.572,0,0,0-3.12,3.243c-.5,1.172.421.244-2.272,2.021a35.488,35.488,0,0,0-4.559,4.094,28.906,28.906,0,0,0-3.479-1.546c-2.616-.984-2.545-1.1-4.206-1.111a15.714,15.714,0,0,0-3.421-.7c-3.531-.105-5.694,2.068-6.7,5.451-1.076,3.591,1.6,10.788,3.521,13.506a18.15,18.15,0,0,1,1.758,3.037c-6.587,3.941-5.944,3.426-6.173,3.191a4.236,4.236,0,0,0-4.223-1.365c-3.226.694-4.107,5.24-2.688,7.506a7.353,7.353,0,0,0,1.915,9.039c.266.853,5.33.85,6.36.8,5.28.868,4.5-1.2,4.584,1.755a14.37,14.37,0,0,0,.916,5.02,3.746,3.746,0,0,0,1.786,2.506C514.253,712.721,516.067,713.782,516.936,714.068Zm-.073-1.265c.573.178.543.087.506.174C517.277,712.954,517,712.856,516.863,712.8Zm1.653-11.349-.059.008Zm-18.182-2.977c-.577-.284-.866-.434-1.077-1.66a6.3,6.3,0,0,1,.208-2.361c.25-.832.1-.643.614-.383a5.257,5.257,0,0,0,6.87-1.79,4.988,4.988,0,0,0-.383-4.5,56.708,56.708,0,0,1,5.347-3.126c.651-.347.4-.406,1.018.39.9,1.217-.377-.983-1.414,10.535-.056.644-.072.464-.146,1.65-.053.872.267.623-1.143.814C505.984,698.613,502.711,699.44,500.334,698.477Zm5.815.164-.106.014Zm-5.4-8.1c-.1-.246-.088-.235-.024-.445.1-.316.074-.407.188.329C500.9,690.436,500.756,690.558,500.748,690.539Zm1.361-2.119c.634-.177-.058.025.048,1.094l-.282.187A2.7,2.7,0,0,1,502.108,688.421Zm-.1.208.018-.04Zm26.213-18.558c2.034,1.986,4.351,4.26,2.259,2.277-3.034-2.88-6.144-5.135-5.956-5.372C527.651,669.582,527.8,670.123,528.219,670.071Zm30.7,12.194a5.782,5.782,0,0,1-.089,1.892c-.356-.453-.8.2-.988.418a23.379,23.379,0,0,1-2.086,1.886A13.3,13.3,0,0,0,558.919,682.265Zm-9.809,20.2-.007-.047Zm-10.144-5.838c8.047-2.729,6.866-3.141,7.23-2.444A60.047,60.047,0,0,1,538.966,696.625Zm-19.062,16.4.082-.011Zm5.6-2.662.035-.028Zm-15.27-9.74a.473.473,0,0,0,.269.233c-.538.055-.908.086-1.647.115C506.43,701.07,508.374,700.995,510.235,700.622Zm1.993-3.3a81.68,81.68,0,0,1,1.65-10.26c.2-.636-.081-.542,1.281,1.294,2.891,3.874,2.31,3.708,4.81,6.228,1.161,1.17.518.452,2.042,2.1a61.882,61.882,0,0,1-6.948.68C511.022,697.931,512.851,697.879,512.228,697.327Zm.253-2.069,0-.029C512.483,695.239,512.482,695.248,512.48,695.258Zm4.067-12.882a20.334,20.334,0,0,1,4.572-1.615c8.414-2.338.587-.481,11.977-3.341.616-.156.43-.232,1.113.5a31.6,31.6,0,0,1,2.566,2.887c1.809,2.243,1.757,1.492,1.564,2.267a67.81,67.81,0,0,1-3.852,11.124c-.738.2-6.5,1.54-11.021,2.192-3.392-4.421-1.257-.114-8.885-11.345C515.541,682.5,515.343,682.957,516.547,682.375Zm19.436-5c.1-.048.031-.1.239.151C536.2,677.639,536.289,677.7,535.984,677.372ZM519.9,697.954c1.6-.159.861-.07-.447.156C518.708,698.238,518.579,698.288,519.9,697.954Zm15.972-7.063.024-.055Zm.61,1.538c.877-2.038,1.14-2.936-.344,1.3-.239.068-.348.348.37-1.356Zm5.3-10.1c-.016-.02-.014-.014-.008-.029C541.892,682,541.9,681.956,541.782,682.328Zm-8.362,19.048c1.944-3.162,1.639-2.829,1.748-2.847C533.991,700.793,529.168,708.307,533.42,701.376Zm-10.832-3.626c.319-.034.252-.048.334.06C522.579,697.9,522.787,697.866,522.588,697.75Zm17.477-13.1.522.68a24.857,24.857,0,0,1-1.2,2.359C539.285,688.037,539.231,687.106,540.065,684.646Zm1.1,9.751c1.2-.547,2.423-1.232,2.538-1.3,1.8-.574,1.582-.548,1.664-.41.129.217.105.161.032.161-.116,0-.037-.017-1.267.612C539.8,695.136,539.677,695.384,541.167,694.4Zm-2.229-5.314c-.239.612-.182.487-.016,0Zm-6.345,7.955c-.2.337.568.172-2,.672C532.7,697.019,532.717,696.827,532.593,697.039Zm7.794-11.974-.029-.037Zm-5.3,12.3c-.047.087-.02.069-.118.086C535.018,697.369,534.993,697.39,535.09,697.367Zm-.733,1.3c-.935,1.616-.81,1.381-.056.01Zm15.594-8.111a1.423,1.423,0,0,1-.207.139C549.761,690.642,549.7,690.686,549.951,690.556Zm-10.731,2.325a21.64,21.64,0,0,0,1.221-3.216c.313-.919.854-2.061,1.133-3.021.014-.047-.076-.155.753.987a19.649,19.649,0,0,1,2.369,3.929A35.866,35.866,0,0,1,539.22,692.881Zm3.036-19.942c.086-.877.066-.762.072-.542A.907.907,0,0,1,542.257,672.94Zm-2.914,10.747c.193.258.181.1.027.772C536.5,692.792,538.164,688.246,539.342,683.686Zm10.319,8.358c1.636-.672,1.439-.637.565-.083C548.942,692.777,548.591,693.058,549.661,692.045Zm-7.076-12.912c-.011.08.014.04-.108-.037C542.673,678.381,542.707,678.157,542.585,679.133Zm-.573-1.758c-.341.737-.325,1.247-.076-1.223.148-.55,0-.445.591-.518C542.183,677.259,542.179,677.012,542.012,677.375Zm.5-3.158c.057-.181.02-.151.144-.1.071.026.069-.04.065.08Zm-2.255,6.285c-.057-.068-.06.043.161-.714ZM537.669,696.7c.033-.009.051.155.254.188C537.457,696.992,537.524,697.035,537.669,696.7Zm8.64-5.757c-.363-.573-.028-.118-.422-.774C545.112,688.869,546.4,690.9,546.309,690.939Zm-3.729-5.622a14.109,14.109,0,0,1,1.5,2.021C543.59,686.654,543.08,685.988,542.58,685.316Zm.728-7.621c-.069-.88-.278-.645-.211-.9.1-.384.206-.851.288-1.262.177-.017.174-.117.123.551A12.994,12.994,0,0,1,543.308,677.7Zm-7.915-20.452a3.823,3.823,0,0,1,.676.216,2.221,2.221,0,0,0-1.554.256C534.635,657.5,535.034,657.361,535.393,657.244Zm-.447.165.048-.02Zm2.365-.643a1.6,1.6,0,0,1,.562.426C537.592,657.115,537.725,657.064,537.31,656.765Zm-.015,2.428a5.66,5.66,0,0,0-1.282-.438c-.183-.332-.357-.256.2-.508A3.042,3.042,0,0,1,537.3,659.193Zm-.6,1.235-.042-.018Zm-1.848-.423a1.537,1.537,0,0,0-.167.253C534.763,659.957,534.771,660,534.85,660.005Zm-.231,2.787c.359.11.165-.029.6.113.374.123.446.055.191.164-.4.169-.447.136-.656.056a2.03,2.03,0,0,1-.727-.6C533.87,662.334,534.075,662.626,534.62,662.792Zm1.647-1.719c-.081.062-.021.046.071-.274.149-.506-.124-.613.5-.286A4.029,4.029,0,0,1,536.267,661.073Zm2.273.586c.188.149.175.115.113.2a3.773,3.773,0,0,1-1.151.976C537.533,662.8,538.512,661.692,538.54,661.659Zm1.435,14.835c-.167.927-.395,1.957-.643,2.887-1.013-1.227-1.126-1.5-2.233-2.79C540.6,675.831,540.1,675.824,539.974,676.494Zm-7.516-.4c-8.337,2.076-4.669,1.375-10.053,2.941-4.427,1.284-4.981,1.609-6.007,2.113-.37.182-.7.874,1.3-3.4a46.711,46.711,0,0,1,6.02-9.767C526.948,670.936,527.224,670.507,532.458,676.094Zm-18.607,7.959c-.288-.366-.338-.256.215-.512C513.906,683.925,513.958,683.8,513.852,684.052Zm-7.826,5.6a2.228,2.228,0,0,1,.146,1.136,3.277,3.277,0,0,0-.155-.661A2.511,2.511,0,0,0,506.026,689.647Zm-.19-1.353c.287.477.2.322-.149.067-.018-.037-.039-.025.063-.086C505.812,688.238,505.8,688.232,505.836,688.295Zm-.468,1.869c-.047.161-.024.078-.009-.018Zm-.057-1.044c-.044-.04-.027-.009-.064-.157S505.262,688.926,505.311,689.12Zm-1.869,2.556c-.863.337-1.266.043-1.523-.461a3.1,3.1,0,0,0,2.28-.732c.486-.4.534-.748.509-.514A2.029,2.029,0,0,1,503.442,691.676Zm.348-2.145c-.124.191-.207.366-.429.42C503.284,689.879,503.228,689.949,503.789,689.531Zm-2.932,2.372a2.82,2.82,0,0,0,2.695.863C502.231,693.184,500.557,692.237,500.857,691.9Zm2.46-3.17c-.136.1-.128.095-.119.069a.989.989,0,0,1,.208-.3C503.586,688.6,503.568,688.558,503.317,688.733Zm-3.23.442c-.331.594-.383,1.188-.3.489a2.358,2.358,0,0,1,.464-1.061A3.76,3.76,0,0,0,500.087,689.175Zm28.748,10.75c1.7-.387,1.791-.448,3.088-.766-.018.033-2.081,3.79-2.1,3.823-1.145-1.056-1.7-1.249-2.768-2.273C526.4,700.077,526.324,700.5,528.835,699.926Zm1.2,5.163c.42.429-2.784,3.772-3.535,4.441A20.468,20.468,0,0,0,530.034,705.089ZM526,709.976c-.066.058-1.285,1-.3.222C526.211,709.8,526.574,709.464,526,709.976Zm-7.194,3.083c-.76-.136.668.107,2.3-.316A6.012,6.012,0,0,1,518.8,713.059Zm4.634-.118c-.238.1-.482.183-.728.261C524.208,712.542,524.117,712.653,523.436,712.941Zm21.279.6a1.913,1.913,0,0,1-.853-.986c.141-.12.052.07.6.295C544.665,713.554,544.918,713.609,544.715,713.539Zm.665-2.56c-.03-.1-.032-.053.016-.235Q545.385,710.861,545.381,710.979Zm2.641-1.639a3.62,3.62,0,0,1-.833,1.664.651.651,0,0,0-.5.289,2.961,2.961,0,0,1,.593-2.119.924.924,0,0,1,.479-.042C548.082,709.193,548.038,709.181,548.022,709.34Zm-2.18-1.59c.487-.36.869-.805,2.369-.332A3.692,3.692,0,0,0,545.843,707.75Zm1.821-.476.038,0Zm-.329-2.681c-2.089-.266-4.836,2.947-5.4,5.09-.254.948.1.878-.86.605a15.4,15.4,0,0,1-2.516-1.1,23.486,23.486,0,0,1-5.244-3.227c-.679-.489-.6-.369-.488-.535a31.206,31.206,0,0,0,3.347-5.175c1.247-2.66-.178-1.7,3.475-2.679a60.959,60.959,0,0,0,6.938-2.438c.1-.046.008-.184.547.952a17.459,17.459,0,0,1,2.022,8.972A6.954,6.954,0,0,0,547.335,704.593Zm2.656,7.15a2.923,2.923,0,0,1-.654.907C549.906,711.925,550.144,711.352,549.99,711.744Zm.336-8.2c0-.042,0-.05,0-.009Zm-.584-5.108c1.41,4.409.2,1.377-1.53-2.852a.27.27,0,0,0,.3.013c.154-.1.048-.247.4.506A17.637,17.637,0,0,1,549.742,698.433Zm-.759-2.192.037.09Zm4.541-5.861a.333.333,0,0,0-.329-.394c-.066,0-.116.059.43-.389,3.265-2.688,1.116-1.3,1.959-.677A15.423,15.423,0,0,1,553.524,690.38Zm3.083-12.162-.052-.039Zm-6.93-2.788-.048-.007Zm2.036.34c1.461.21,1.95.234,4.8,2.375a8.7,8.7,0,0,1,1.069,1.194c.927,1.247.694,2.357-.121,3.658-1-1.194-.951,3.69-9.962,7.439a52.236,52.236,0,0,0-4.06-6.127c-1-1.205-.909-.817-.62-1.544a24.5,24.5,0,0,0,1.623-7.308C549.566,675.152,549.838,675.5,551.712,675.769ZM525.8,665.452a18.869,18.869,0,0,1,5-4.229,4.245,4.245,0,0,0,.743,2.124,3.375,3.375,0,0,0,3.1,1.976,6.631,6.631,0,0,0,5.1-2.383c1.7,3,1.109,8.248.573,11.561-1.9.264-1.971.393-4.3.844-1.6-1.8-2.907-2.728-7.67-7.265C525.325,665.2,525.476,665.806,525.8,665.452Zm-4.014-.651c.015.339.071.048,1.664,1.308-.075.1.065.09-.824-.551C521.1,664.455,520.561,664.244,521.789,664.8Zm-10.768-1.65-.043.019Zm-1.059.625-.067.051Zm.656,14.884a31.331,31.331,0,0,1-2.611-6.678c-1.244-3.9.479-7.324,2.41-8.521,3.37-2.12,9.158,1.106,12.265,3.618a45.706,45.706,0,0,0-7.637,13.916c-.441,1.31-.1.863-1.721,1.7-.351.184-.256.333-.628-.521A36.854,36.854,0,0,0,510.619,678.659Zm-11.508,10.757c.447-3.427,3.654-4.508,6.04-1.968-.219.16.01.065-.608-.224a1.443,1.443,0,0,0-2.166-.293,4.319,4.319,0,0,0-2.467,1.083C499.027,688.935,498.995,690.306,499.111,689.416Zm.689,10.163c3.784,1.588,14.606-1.573,8.514.194-5.244.528-5.808.468-5.953.9a6.545,6.545,0,0,0-1.226.455A4.359,4.359,0,0,1,499.8,699.578Zm13.75,10.162a15.676,15.676,0,0,1-1.188-7.033c1.052-.109,2.875-.52,3.156-.58,6.147-1.291,3.361-.594,7.663-1.316,2.972-.5.96-.644,4.619,2.172a14.962,14.962,0,0,1,1.331,1.174,18.181,18.181,0,0,1-4.623,5.413,10.354,10.354,0,0,1-4.621,2.213,7.9,7.9,0,0,1-2.9-.049C515.891,711.431,514.344,711.559,513.55,709.741Z" transform="translate(-48.286 -28.143)" fill="#8dbd2f"/>
    <path id="Tracé_201" data-name="Tracé 201" d="M461.526,777.831a.321.321,0,0,0-.394-.224,6.977,6.977,0,0,0-2.914,1.883,18.973,18.973,0,0,0-2.425,3.424,11.476,11.476,0,0,0-.8,5.13c.144,2.7,1.112,3.778,2.979,5.841.358.394,1,1.245,1.643.6a.765.765,0,0,0,0-1.073c-2.82-2.75-3.882-4.156-3.4-8.5a8.879,8.879,0,0,1,.365-1.613C459.284,777.425,461.8,778.8,461.526,777.831Z" transform="translate(-15.082 -122.888)" fill="#8dbd2f"/>
    <path id="Tracé_202" data-name="Tracé 202" d="M438.048,806.176c.226-.852-1.991-1.635-1.558-5.095a6.563,6.563,0,0,1,1.364-3,.4.4,0,0,0-.342-.6c-.8,0-2.869,4.406-1.723,6.879a19.962,19.962,0,0,0,1.161,1.962A.6.6,0,0,0,438.048,806.176Zm-.224-.672-.077-.1Z" transform="translate(0 -138.249)" fill="#8dbd2f"/>
    <path id="Tracé_203" data-name="Tracé 203" d="M520.842,671.826c1.107,0-.037-1.789,1.691-4.173.9-1.055,2.874-.988,3.183-1.518a.733.733,0,0,0-.264-1c-.493-.29-1.542.212-2.3.56-2.247,1.033-2.661,3.344-2.866,5.579A.557.557,0,0,0,520.842,671.826Z" transform="translate(-65.525 -35.957)" fill="#8dbd2f"/>
    <path id="Tracé_204" data-name="Tracé 204" d="M554.5,920.521c-2.348-1.024-2.112-3.794-2.883-3.794a.471.471,0,0,0-.449.593c.952,3.044,1.487,4.234,4.975,5.481a.787.787,0,0,0,.968-.549C557.362,921.332,556.477,921.3,554.5,920.521Zm-1.989-2.169.014.036Z" transform="translate(-89.365 -230.357)" fill="#8dbd2f"/>
    <path id="Tracé_205" data-name="Tracé 205" d="M733.164,901.488a4.12,4.12,0,0,0,.373-1.763c.006-.361.077-.875-.4-.875-.874,0,.2,1.095-1.216,3-1.644,1.953-3.635,1.885-3.018,2.944C729.581,905.962,732.4,903.262,733.164,901.488Zm-.494-1.181c0-.009,0-.028,0-.028S732.671,900.3,732.669,900.307Z" transform="translate(-226.57 -216.549)" fill="#8dbd2f"/>
    <path id="Tracé_206" data-name="Tracé 206" d="M744.554,908.969c.762.214,3-2.779,3.514-4.076a3.94,3.94,0,0,0,.079-1.986.35.35,0,0,0-.348-.35c-.617,0-.163.709-.272,1.729-.4,1.87-3.253,4.033-3.282,4.138A.442.442,0,0,0,744.554,908.969Z" transform="translate(-238.501 -219.412)" fill="#8dbd2f"/>
    <path id="Tracé_207" data-name="Tracé 207" d="M774.476,754.291c.93.542,1.511-1.154,1.832-2.183a6.49,6.49,0,0,0,.039-4,9.1,9.1,0,0,0-2.865-3.88,4.509,4.509,0,0,0-1.149-.531.487.487,0,0,0-.239.906,3.757,3.757,0,0,1,1.675,1.233C777.5,751.1,772.9,753.364,774.476,754.291Zm.681-3.541.006-.049Zm-.321-3.114.041.1Zm.342,1.215.008.052Z" transform="translate(-259.838 -96.708)" fill="#8dbd2f"/>
    <path id="Tracé_208" data-name="Tracé 208" d="M655.18,621.673c2.1,1.644,2.26,2.1,2.951,4.056.332.947.492,2.191,1.446,1.927,1.126-.305.322-1.781-.165-3.037a6.789,6.789,0,0,0-2.661-3.507c-4.236-3.158-7.109-3.147-10.247-1.617-.653.316-1.414.6-1.035,1.252C646.333,622.217,649.051,617.115,655.18,621.673Zm-4.138-1.883-.063-.008Zm-1.646-.016-.068.009Z" transform="translate(-162.14)" fill="#8dbd2f"/>
  </g>
</svg>
