<svg xmlns="http://www.w3.org/2000/svg" width="48.312" height="51.935" viewBox="0 0 48.312 51.935">
  <g id="Dessin_03" data-name="Dessin 03" transform="translate(-47.102 -1103.295) rotate(22)">
    <path id="Tracé_240" data-name="Tracé 240" d="M548.647,1048.627c.392-3.458-1.018-7.966-4.1-9.868-3.765-2.314-6.506-2.6-10.33-2.328-2.006.139-8.347,2.026-10.81,3.942a9.775,9.775,0,0,0-2.438,2.686c-1.324,1.9-2.575,3.937-2.652,6.348a9.694,9.694,0,0,0,6.206,9.553c3.637,1.516,4.318,1.776,4.469,5.073a.624.624,0,0,0,1.249,0c-.133-2.888-.476-4.293-3.868-5.779a20.014,20.014,0,0,1-3.964-2.067,8.909,8.909,0,0,1-3.013-5.063,8.115,8.115,0,0,1,1.581-6.13c1.851-2.689,3.209-4.408,7.315-5.57,1.313-.373,4.115-1.323,5.161-1.468a19.076,19.076,0,0,1,6.424.352,15.86,15.86,0,0,1,4.9,2.641,9.973,9.973,0,0,1,2.36,7.666c-.681,5.442-5.118,6.7-8.649,8.768a4.3,4.3,0,0,0-2.348,2.49,6.878,6.878,0,0,0-.439,3.732c-.361.015-.573.033-.962.078.068-.673-.428.075-.394-5.934a18.008,18.008,0,0,1,1.02-5.472c.689-2.279,1.141-2.173,1.137-2.619a13.158,13.158,0,0,0,3.561-.331,6.829,6.829,0,0,0,2.437-1.648.463.463,0,0,0-.678-.521c-2.033,1.3-1.967,1.44-4.76,1.378a1.754,1.754,0,0,1-2-1.4,8.509,8.509,0,0,0,2.581-4.684c.1-1.349-1.433-1.648-2.493-1.1-1.42.734-1.581,4.333-1.451,5.45a4.866,4.866,0,0,1-3.378,1.416c-.357.016-.288.129.063-.712,1.542-3.7-.858-4.9-2.59-3.012a3.006,3.006,0,0,0,.561,4.594,5.637,5.637,0,0,1-2.755,1.6c-1.331.383-2.347.315-2.241-1.076a2.08,2.08,0,0,1,1.022-1.669c-.247.191.471-.2.182-.69a.5.5,0,0,0-.687-.181,3.558,3.558,0,0,0-1.068,1.022c-1.441,2.322-.109,5.534,4.476,3.072-.472,1.213,1.331-.578,3.659,6.977.791,2.559,1.068,3.383.809,5.375a.48.48,0,1,0,.959,0c.167-1.258.242-2.151-.595-4.875-.745-2.435-1.556-5.432-3.4-7.21-.112-.109-.634-.592-.88-.609a7.617,7.617,0,0,0,1.223-1.039c.619-.725-.229,0,2.263-.441a5.22,5.22,0,0,0,2.715-1.356,3.033,3.033,0,0,0,1.4,1.46c-1.646,2.43-2.8,8.547-1.6,14.313.026.126-5.235.488-5.915,2.586a1.309,1.309,0,0,0,1.283,1.674c.147.6.859,1.083,1.236.538-.192.445-.171.983.3,1.112.352.1.368-.226.33.382-.029.485-.546,3.162.823,4.779a3.186,3.186,0,0,0,1.413.981c-.434,2.259,3.674,2.688,3.052-.07,2.509-.547,2.162-4.439,1.839-7.156.169.054.337.111.5.174a.568.568,0,0,0,.3-1.094,11.967,11.967,0,0,0-6.306-.322,3.065,3.065,0,0,0-2.2,1.1.659.659,0,0,0-.179-.662,10.413,10.413,0,0,1,2.391-.762,25.748,25.748,0,0,1,5.461-.343,11.023,11.023,0,0,1,1.114.239.582.582,0,0,0,.309-1.123,10.659,10.659,0,0,0-3.707-.313c-.131.011-5.276.293-6.428,1.483-.687-.122-.32-.256.3-.557,3.795-1.849,8.182-.952,8.823-1.594a.754.754,0,0,0-.494-1.28c-1.4,0-1.255.189-1.3-.129a5.764,5.764,0,0,1,.509-3.039C538.813,1057.089,547.67,1057.2,548.647,1048.627Zm-26.125-5.735.054-.071Zm4.086-2.879.071-.029Zm1.848,12.683-.031-.041Zm1.071-8.169-.026,0Zm-.451,3.506a1.9,1.9,0,0,1-.594-2.784,2,2,0,0,1,1.1-.712C530.458,1044.748,529.537,1047.205,529.077,1048.034Zm7.2-5.98c.408.073.4.084.365.424a8.743,8.743,0,0,1-1.745,3.311C534.888,1044.259,534.867,1041.94,536.276,1042.054Zm-1.741,33.4c-.289.186-.143.192-.287.04.051-.135-.013-.126.159-.1C534.668,1075.423,534.6,1075.412,534.535,1075.452Zm-1.2-7-.1.015Zm3.517-.157c.125.864.507,4.6-.276,5.795a1.119,1.119,0,0,1-.776.415.623.623,0,0,0-.687.038c-1.187-.2-1.39-.174-1.565,0-2.161-1.321-.929-5.123-1.391-5.833A15.415,15.415,0,0,1,536.848,1068.3Zm-3.415-1.392-.067.009Z" transform="translate(-46.15 -34.755)" fill="#02853c"/>
    <path id="Tracé_241" data-name="Tracé 241" d="M528.4,1183.1a.557.557,0,0,0,.672-.087.769.769,0,0,0,.174-.322,26.66,26.66,0,0,1,1.355-2.766.369.369,0,0,0-.32-.556c-.311,0-.332.217-.66.876C528.958,1181.575,527.516,1182.578,528.4,1183.1Z" transform="translate(-54.203 -152.153)" fill="#02853c"/>
    <path id="Tracé_242" data-name="Tracé 242" d="M499.3,1163.286c-1.722,2.037-1.88,1.616-2.837,2.972-.418.6.588,1.327,1.036.606a6.674,6.674,0,0,1,.492-.88c1.041-1.358,2.394-2.189,1.884-2.7A.408.408,0,0,0,499.3,1163.286Z" transform="translate(-28.128 -138.855)" fill="#02853c"/>
    <path id="Tracé_243" data-name="Tracé 243" d="M468.524,1115.888c0-.443-.442-.284-1.74-.367-.583-.039-.94-.124-1.294-.108a19.738,19.738,0,0,0-2.831.171.783.783,0,0,0,.416,1.509c.162-.022-.464.106,1.785-.483a6.287,6.287,0,0,1,2.09-.4C468.036,1116.165,468.524,1116.347,468.524,1115.888Z" transform="translate(0 -99.654)" fill="#02853c"/>
    <path id="Tracé_244" data-name="Tracé 244" d="M482.51,1066.554a29.629,29.629,0,0,1-4.058-2.359.645.645,0,0,0-1.013.781c.235.4.3.147,1.538.633,1.93.757,1.572.722,3.225,1.47A.3.3,0,0,0,482.51,1066.554Z" transform="translate(-12.526 -57.462)" fill="#02853c"/>
    <path id="Tracé_245" data-name="Tracé 245" d="M518.719,1030.5c.465-.272.029-.615-1.46-3.245-.376-.663-.7-1.532-1.357-1.147a.6.6,0,0,0-.121.94C517.913,1029,518.039,1030.9,518.719,1030.5Z" transform="translate(-43.929 -26.271)" fill="#02853c"/>
    <path id="Tracé_246" data-name="Tracé 246" d="M563.742,1009.313c.627-.174-.078-1.218-.393-3.49-.149-1.337-1.753-.495-.916.367C563.259,1007.5,563,1009.516,563.742,1009.313Z" transform="translate(-82.169 -9.126)" fill="#02853c"/>
    <path id="Tracé_247" data-name="Tracé 247" d="M613.895,998.761c.46,0,.36-.452.394-2.225a13.031,13.031,0,0,1,.134-1.883.51.51,0,1,0-.984,0,22.329,22.329,0,0,1,.106,3.76A.351.351,0,0,0,613.895,998.761Z" transform="translate(-124.218 0)" fill="#02853c"/>
    <path id="Tracé_248" data-name="Tracé 248" d="M673.924,1009.83a.655.655,0,0,0-.174-1.285c-.264,0-.411.089-1.272.9a12.211,12.211,0,0,0-2.442,2.643.365.365,0,0,0,.131.5c.386.226.591-.287.886-.672A8.173,8.173,0,0,1,673.924,1009.83Z" transform="translate(-170.649 -11.933)" fill="#02853c"/>
    <path id="Tracé_249" data-name="Tracé 249" d="M693.738,1046.208c1.039-.417,1.938.272,2.468-.035a.761.761,0,0,0,.153-1.193c-.7-.7-2.776.667-4.546,1.379a.289.289,0,0,0,.153.556C694.152,1046.024,693.377,1046.352,693.738,1046.208Z" transform="translate(-188.395 -41.682)" fill="#02853c"/>
    <path id="Tracé_250" data-name="Tracé 250" d="M709.865,1091.22a.684.684,0,0,0-.345-1.272c-.1,0-.594.1-.774.128a11.411,11.411,0,0,0-3.074.479.422.422,0,0,0-.292.514c.126.46.609.28,1.069.147C707.664,1090.852,709.478,1091.443,709.865,1091.22Z" transform="translate(-199.693 -78.753)" fill="#02853c"/>
    <path id="Tracé_251" data-name="Tracé 251" d="M708.139,1131.515a.323.323,0,0,0-.441.116c-.295.505.689.531,1.85,2.007.94,1.194.818,1.336,1.152,1.428a.531.531,0,0,0,.652-.371c.116-.419-.266-.639-.786-1.116A15.473,15.473,0,0,0,708.139,1131.515Zm1.766,2.594.021.027Z" transform="translate(-201.564 -112.834)" fill="#02853c"/>
    <path id="Tracé_252" data-name="Tracé 252" d="M668.049,1169.178c-.762-.915-.936-1.478-2.478-3.5a.319.319,0,0,0-.551.323,11.083,11.083,0,0,1,2.057,3.925.62.62,0,1,0,.973-.751Z" transform="translate(-166.533 -140.787)" fill="#02853c"/>
  </g>
</svg>
